<?xml version="1.0" encoding="utf-8"?>
<!-- Generator: Adobe Illustrator 17.0.0, SVG Export Plug-In . SVG Version: 6.00 Build 0)  -->
<!DOCTYPE svg PUBLIC "-//W3C//DTD SVG 1.1//EN" "http://www.w3.org/Graphics/SVG/1.1/DTD/svg11.dtd">
<svg version="1.1" id="Layer_1" xmlns="http://www.w3.org/2000/svg" xmlns:xlink="http://www.w3.org/1999/xlink" x="0px" y="0px"
	 width="80px" height="80px" viewBox="0 0 80 80" enable-background="new 0 0 80 80" xml:space="preserve">
<g>
	<path fill="#FFFFFF" d="M55.831,15.06v8.146h7.811v3.513h-7.811v8.222h-3.662v-8.222h-7.811v-3.513h7.811V15.06H55.831z"/>
</g>
<g>
	<path fill="#FFFFFF" d="M69,55v15H9V55H69 M73,51H5v23h68V51L73,51z"/>
</g>
<g>
	<path fill="#FFFFFF" d="M24,10v30H9V10H24 M28,6H5v38h23V6L28,6z"/>
</g>
<g>
	<path fill="#FFFFFF" d="M69,10v30H39V10H69 M73,6H35v38h38V6L73,6z"/>
</g>
</svg>
