<?xml version="1.0" encoding="utf-8"?>
<!-- Generator: Adobe Illustrator 17.0.0, SVG Export Plug-In . SVG Version: 6.00 Build 0)  -->
<!DOCTYPE svg PUBLIC "-//W3C//DTD SVG 1.1//EN" "http://www.w3.org/Graphics/SVG/1.1/DTD/svg11.dtd">
<svg version="1.1" id="Layer_1" xmlns="http://www.w3.org/2000/svg" xmlns:xlink="http://www.w3.org/1999/xlink" x="0px" y="0px"
	 width="80px" height="80px" viewBox="0 0 80 80" enable-background="new 0 0 80 80" xml:space="preserve">
<g>
	<path fill="#FFFFFF" d="M42.903,26.476v11.082H53.53v4.779H42.903v11.186h-4.982V42.338H27.295v-4.779h10.627V26.476H42.903z"/>
</g>
<g>
	<path fill="#FFFFFF" d="M40,9c17.093,0,31,13.907,31,31S57.093,71,40,71S9,57.093,9,40S22.907,9,40,9 M40,5C20.67,5,5,20.67,5,40
		s15.67,35,35,35s35-15.67,35-35S59.33,5,40,5L40,5z"/>
</g>
</svg>
